HIERARCHY
ROOT pelvis
{
  OFFSET 0 0 0
  CHANNELS 6 Xposition Yposition Zposition Zrotation Xrotation Yrotation
  JOINT pelvis_right_femur
  {
    OFFSET -11.43119 -3.542788 0.2090856
    CHANNELS 3 Zrotation Xrotation Yrotation
    JOINT right_femur_tibia
    {
      OFFSET -1.028693 -40.73281 5
      CHANNELS 3 Zrotation Xrotation Yrotation
      JOINT right_tibia_foot
      {
        OFFSET -0.5013517 -42.05707 -5
        CHANNELS 3 Zrotation Xrotation Yrotation
        End Site
        {
          OFFSET 0 -5 10
        }
      }
    }
  }
  JOINT pelvis_left_femur
  {
    OFFSET 11.43119 -3.542788 0.2090856
    CHANNELS 3 Zrotation Xrotation Yrotation
    JOINT left_femur_tibia
    {
      OFFSET 1.028693 -40.73281 5
      CHANNELS 3 Zrotation Xrotation Yrotation
      JOINT left_tibia_foot
      {
        OFFSET 0.3200228 -42.98253 -5
        CHANNELS 3 Zrotation Xrotation Yrotation
        End Site
        {
          OFFSET 0 -5 10
        }
      }
    }
  }
  JOINT pelvis_spine1
  {
    OFFSET 0 8.64413 -3.209807
    CHANNELS 3 Zrotation Xrotation Yrotation
    JOINT spine1
    {
      OFFSET 0 29.53957 -1.762685
      CHANNELS 3 Zrotation Xrotation Yrotation
      JOINT spine2
      {
        OFFSET 0 16.36153 -0.1422377
        CHANNELS 3 Zrotation Xrotation Yrotation
        JOINT neck
        {
          OFFSET 0 11.60093 5
          CHANNELS 3 Zrotation Xrotation Yrotation
          End Site
          {
            OFFSET 0 20 0
          }
        }
      }
      JOINT right_manubrium
      {
        OFFSET -4.671311 15.89868 4
        CHANNELS 3 Zrotation Xrotation Yrotation
        JOINT right_clavicle
        {
          OFFSET -13.601 1.573642 -2.74176
          CHANNELS 3 Zrotation Xrotation Yrotation
          JOINT right_humerus
          {
            OFFSET -0.06331682 -27.72702 2.252146
            CHANNELS 3 Zrotation Xrotation Yrotation
            JOINT right_radius
            {
              OFFSET -0.5696302 -23.92083 0.4042105
              CHANNELS 3 Zrotation Xrotation Yrotation
              End Site
              {
                OFFSET 0 -15 0
              }
            }
          }
        }
      }
      JOINT left_manubrium
      {
        OFFSET 4.671311 15.89868 4
        CHANNELS 3 Zrotation Xrotation Yrotation
        JOINT left_clavicle
        {
          OFFSET 13.601 1.573642 -2.74176
          CHANNELS 3 Zrotation Xrotation Yrotation
          JOINT left_humerus
          {
            OFFSET 0.000209614 -29.01858 1.101395
            CHANNELS 3 Zrotation Xrotation Yrotation
            JOINT left_radius
            {
              OFFSET -0.2288314 -24.59216 1.790347
              CHANNELS 3 Zrotation Xrotation Yrotation
              End Site
              {
                OFFSET 0 -15 0
              }
            }
          }
        }
      }
    }
  }
}
MOTION
Frames: 7
Frame Time: 0.0416666666667
0 48.05195 0 -1.670809 -21.14858 -0.5257857 -52.1585 -60.69282 -38.52626 -180 80.84396 -180 11.25942 1.934843 1.834378 62.20498 -49.96691 51.62086 -180 72.35991 -180 -6.781406 -7.545189 -12.67272 -0.01271576 21.32898 1.532163 6.727326 15.71266 -9.145377 -14.57579 9.163868 6.806885 8.885621 -31.87737 -2.053606 19.50623 -10.72245 24.17271 -62.91319 -28.46134 16.42884 0 -71.40771 0 9.811487 -13.41893 26.32934 -26.51501 -34.93451 -3.023057 51.18363 -20.78434 -29.70788 0 -73.86818 0 -18.30178 10.8026 -36.38567
-0.05633776 48.07279 -0.04616703 -1.63341 -21.1815 -0.37664 -52.31986 -60.48562 -38.77874 -180 80.89732 -180 11.28767 1.959973 1.886094 62.06153 -50.09915 51.48282 -180 72.45067 -180 -6.754067 -7.500682 -12.59747 0.06583006 21.51825 1.60549 7.253371 15.89054 -9.341382 -14.6942 9.006831 6.689591 8.869429 -32.15916 -2.405903 20.22306 -11.67941 23.7552 -62.92251 -26.65621 13.72132 0 -71.3715 0 7.416235 -15.55085 25.22681 -26.63535 -35.13004 -3.046429 51.2033 -20.78175 -29.70435 0 -74.0076 0 -18.27718 10.63352 -36.24817
-0.006637417 48.17046 -0.08861479 -1.754864 -21.19442 -0.2427047 -52.40262 -60.14965 -39.04198 -180 81.04438 -180 11.30042 2.028073 1.980718 61.94787 -50.25777 51.36762 -180 72.53559 -180 -6.729237 -7.456971 -12.49001 0.349751 21.77276 1.495363 8.005474 15.9474 -9.681812 -15.02678 8.877523 6.686222 8.773298 -32.47979 -2.711751 21.71154 -13.65423 23.1469 -63.13619 -24.48438 9.398328 0 -70.93088 0 4.070871 -17.90309 23.59061 -26.9121 -35.32756 -2.850201 51.20039 -20.6378 -29.66135 0 -74.234 0 -18.24517 10.41623 -36.08716
-0.007463736 48.1578 -0.1311736 -1.665791 -21.08432 -0.2491283 -52.89105 -60.18162 -39.51986 -180 81.07143 -180 11.30691 2.085798 2.128328 61.96566 -50.33929 51.52049 -180 72.55621 -180 -6.735535 -7.421475 -12.40029 0.2715697 22.05645 1.451491 8.79468 15.65074 -9.983115 -15.49205 8.862941 6.804088 8.597169 -32.66228 -2.917563 23.80323 -16.74572 22.66933 -63.54848 -22.23936 3.700554 0 -69.57889 0 -0.1246576 -20.17037 21.30311 -27.06637 -35.4855 -2.36991 51.27382 -20.33869 -29.55652 0 -74.60417 0 -18.21344 10.14074 -35.9058
-0.06760253 48.04925 -0.1465954 -1.337082 -20.86113 -0.421099 -53.78201 -60.572 -40.26127 -180 80.93838 -180 11.32799 2.111059 2.27036 62.0622 -50.30923 51.89272 -180 72.50859 -180 -6.771578 -7.397884 -12.3261 -0.1123361 22.34349 1.484556 9.40665 15.06897 -10.12377 -15.96107 8.910422 6.978916 8.392311 -32.73534 -3.036304 26.0226 -20.60684 22.6758 -64.23644 -20.10095 -2.628869 0 -66.81648 0 -4.665449 -21.95211 18.43933 -27.09205 -35.58247 -1.765987 51.43305 -19.91986 -29.4194 0 -75.09233 0 -18.19172 9.815041 -35.70691
-0.04607041 48.04335 -0.09770267 -1.151229 -20.59632 -0.6200798 -54.54728 -60.83205 -40.94041 -180 80.89149 -180 11.33874 2.137165 2.43931 62.13446 -50.27131 52.20086 -180 72.4814 -180 -6.811899 -7.400401 -12.21216 -0.1356227 22.59776 1.363558 9.722586 14.49577 -10.16727 -16.27932 8.966843 7.124571 8.262236 -32.84837 -3.10171 27.70975 -24.62832 23.25289 -65.33011 -18.20157 -8.552814 0 -62.61073 0 -8.748877 -22.99358 15.41645 -27.15735 -35.60839 -1.219454 51.63717 -19.41635 -29.30758 0 -75.6485 0 -18.19824 9.444952 -35.49029
-0.06956232 48.10775 0.006219992 -1.002667 -20.33736 -0.7496597 -55.18778 -60.93859 -41.57661 -180 80.84221 -180 11.34814 2.144331 2.62939 62.11281 -50.26658 52.32564 -180 72.45137 -180 -6.845311 -7.414033 -12.04876 0.09562967 22.67679 1.254272 9.664134 14.23801 -10.11815 -16.43558 8.95376 7.182525 8.217331 -33.07367 -3.19441 28.42365 -28.247 24.21979 -66.83065 -16.5423 -13.29326 0 -57.07425 0 -11.73431 -23.22848 12.63711 -27.24982 -35.64147 -0.9203699 51.9457 -18.93414 -29.20398 0 -76.18615 0 -18.23588 9.036477 -35.24971
